Coordinates
version=1
nRows=5
nColumns=40
inDegrees=yes

Units are S.I. units (second, meters, Newtons, ...)
Angles are in degrees.

endheader
time	pelvis_tilt	pelvis_list	pelvis_rotation	pelvis_tx	pelvis_ty	pelvis_tz	hip_flexion_r	hip_adduction_r	hip_rotation_r	knee_angle_r	knee_angle_r_beta	ankle_angle_r	subtalar_angle_r	mtp_angle_r	hip_flexion_l	hip_adduction_l	hip_rotation_l	knee_angle_l	knee_angle_l_beta	ankle_angle_l	subtalar_angle_l	mtp_angle_l	lumbar_extension	lumbar_bending	lumbar_rotation	arm_flex_r	arm_add_r	arm_rot_r	elbow_flex_r	pro_sup_r	wrist_flex_r	wrist_dev_r	arm_flex_l	arm_add_l	arm_rot_l	elbow_flex_l	pro_sup_l	wrist_flex_l	wrist_dev_l
      0.55000000	      2.45345287	     10.54798673	      0.27541934	     -0.54861990	      0.94763235	     -1.44713784	     -9.51711378	    -22.74330606	    -20.98950117	    -41.98138713	     -0.73271343	     -9.68309992	      7.19136512	     -9.29356399	     13.49284823	     -9.15363856	     11.39298754	    -18.44877184	     -0.32199181	     -1.69003451	     10.60336428	      0.51538802	     -3.42364957	    -13.43478658	      5.66619414	      3.38519510	    -10.76392984	    -18.72339156	     29.16115057	     89.95437384	      0.00000000	      0.00000000	    -11.88607134	     11.83534593	      6.69006781	      9.60427577	     89.95437384	      0.00000000	      0.00000000
      0.56000000	      2.30619905	     10.84403793	      0.31023139	     -0.53932427	      0.94839750	     -1.45048032	     -7.94348753	    -23.52954010	    -19.83009648	    -44.35392374	     -0.77412201	    -11.53684332	      6.22481608	     -8.67541860	     12.83381783	     -9.78590271	     11.14877008	    -18.14922116	     -0.31676367	     -1.19567580	     10.66739696	      0.60932213	     -3.22757175	    -13.70486468	      5.45425166	      3.00024917	    -10.48649809	    -19.06919947	     28.43445743	     89.95437384	      0.00000000	      0.00000000	    -11.37757964	     11.81803819	      6.53191151	      9.73040902	     89.95437384	      0.00000000	      0.00000000
      0.57000000	      2.00161212	     11.04323807	      0.37150400	     -0.53095345	      0.94886059	     -1.45373481	     -5.94595658	    -24.19050063	    -18.63295708	    -46.98914834	     -0.82011535	    -11.94541369	      4.87042276	     -8.32576828	     12.44378068	    -10.31829819	     10.78475307	    -17.89804906	     -0.31237989	     -0.56562490	     10.97898834	      1.03600492	     -3.00454719	    -13.84737090	      5.31275610	      2.79795275	    -10.37458216	    -19.16781043	     27.42247367	     89.95437384	      0.00000000	      0.00000000	    -10.61240284	     11.80618621	      6.39343062	      9.80634888	     89.95437384	      0.00000000	      0.00000000
      0.58000000	      2.23671759	     10.79788297	      0.60907831	     -0.52244253	      0.95020146	     -1.45680935	     -4.86418481	    -24.34332996	    -18.30956525	    -49.06991028	     -0.85643150	    -11.96198638	      4.12545708	     -8.21791235	     11.47909392	    -10.23418877	     10.75226687	    -17.79351574	     -0.31055544	     -0.21414415	     10.45703915	      0.95271939	     -3.46525885	    -13.49468236	      4.74719891	      2.49644086	    -10.30079340	    -19.13195063	     26.94218855	     89.95437384	      0.00000000	      0.00000000	     -9.95388840	     11.75048246	      6.23363247	     10.19872786	     89.95437384	      0.00000000	      0.00000000
      0.59000000	      1.56184175	     11.39008490	      0.02326728	     -0.51425090	      0.94995356	     -1.45895760	     -1.77038601	    -25.41359683	    -16.76784370	    -51.85413831	     -0.90502544	    -11.42599421	     -0.58951030	     -7.85904752	     11.34222732	    -11.01634857	     11.16229363	    -17.08237369	     -0.29814366	     -0.00236951	     10.23782389	      1.01842756	     -2.61204088	    -14.11729973	      5.15668041	      2.47373541	     -9.95111076	    -19.77820474	     25.64951495	     89.95437384	      0.00000000	      0.00000000	     -9.36843881	     11.77775904	      6.32338640	     10.45084268	     89.95437384	      0.00000000	      0.00000000
